<svg width="40" height="40" viewBox="0 0 40 40" fill="none" xmlns="http://www.w3.org/2000/svg">
<circle cx="20" cy="20" r="20" fill="#225EB9"/>
<path d="M26.286 11.9425C26.286 11.8078 26.2313 11.6787 26.1338 11.5834C26.0364 11.4882 25.9043 11.4347 25.7665 11.4347H23.1691C21.8612 11.371 20.5806 11.8159 19.6073 12.6722C18.6339 13.5285 18.0468 14.7266 17.9743 16.0046V18.7466H15.3769C15.2391 18.7466 15.107 18.8001 15.0096 18.8953C14.9122 18.9905 14.8574 19.1197 14.8574 19.2544V21.8948C14.8574 22.0294 14.9122 22.1586 15.0096 22.2538C15.107 22.349 15.2391 22.4025 15.3769 22.4025H17.9743V29.2067C17.9743 29.3413 18.029 29.4705 18.1265 29.5657C18.2239 29.6609 18.356 29.7144 18.4938 29.7144H21.6107C21.7484 29.7144 21.8806 29.6609 21.978 29.5657C22.0754 29.4705 22.1301 29.3413 22.1301 29.2067V22.4025H24.8522C24.9677 22.4042 25.0805 22.3681 25.1727 22.3C25.2649 22.232 25.3313 22.1358 25.3613 22.0268L26.1094 19.3864C26.13 19.3114 26.1328 19.2327 26.1175 19.1565C26.1022 19.0802 26.0691 19.0084 26.021 18.9466C25.9728 18.8848 25.9108 18.8347 25.8396 18.8C25.7685 18.7653 25.6902 18.747 25.6107 18.7466H22.1301V16.0046C22.156 15.7533 22.2768 15.5203 22.4689 15.3513C22.661 15.1823 22.9107 15.0894 23.1691 15.0907H25.7665C25.9043 15.0907 26.0364 15.0372 26.1338 14.9419C26.2313 14.8467 26.286 14.7176 26.286 14.5829V11.9425Z" fill="white"/>
</svg>
