<svg width="40" height="40" viewBox="0 0 40 40" fill="none" xmlns="http://www.w3.org/2000/svg">
<circle cx="20" cy="20" r="20" fill="url(#paint0_linear_33_580)"/>
<path d="M28.942 16.3128C28.9319 15.557 28.7902 14.8087 28.5232 14.1015C28.2917 13.5049 27.938 12.9631 27.4848 12.5106C27.0317 12.0582 26.489 11.7052 25.8914 11.474C25.192 11.2119 24.4532 11.0702 23.7064 11.0549C22.7448 11.012 22.4399 11 19.999 11C17.5581 11 17.2452 11 16.2906 11.0549C15.5441 11.0703 14.8057 11.212 14.1066 11.474C13.5089 11.705 12.9661 12.058 12.513 12.5104C12.0598 12.9629 11.7062 13.5048 11.4748 14.1015C11.2117 14.7991 11.0701 15.5365 11.056 16.2819C11.013 17.2428 11 17.5472 11 19.984C11 22.4209 11 22.7322 11.056 23.6862C11.071 24.4326 11.2119 25.1691 11.4748 25.8686C11.7066 26.4651 12.0604 27.0068 12.5138 27.459C12.9671 27.9113 13.5099 28.2641 14.1076 28.4951C14.8047 28.7677 15.5434 28.9196 16.2916 28.9441C17.2542 28.987 17.5591 29 20 29C22.4409 29 22.7538 29 23.7084 28.9441C24.4552 28.9294 25.1941 28.7881 25.8934 28.526C26.4908 28.2946 27.0334 27.9414 27.4865 27.489C27.9396 27.0367 28.2934 26.495 28.5252 25.8985C28.7881 25.2 28.929 24.4636 28.944 23.7162C28.987 22.7562 29 22.4518 29 20.014C28.998 17.5771 28.998 17.2678 28.942 16.3128ZM19.993 24.5923C17.4401 24.5923 15.3721 22.5277 15.3721 19.979C15.3721 17.4304 17.4401 15.3658 19.993 15.3658C21.2186 15.3658 22.3939 15.8518 23.2605 16.717C24.1271 17.5821 24.614 18.7555 24.614 19.979C24.614 21.2026 24.1271 22.376 23.2605 23.2411C22.3939 24.1063 21.2186 24.5923 19.993 24.5923ZM24.7979 16.2709C24.2011 16.2709 23.7203 15.7899 23.7203 15.1951C23.7203 15.0539 23.7482 14.9141 23.8023 14.7837C23.8565 14.6532 23.9358 14.5347 24.0358 14.4348C24.1358 14.335 24.2545 14.2558 24.3852 14.2018C24.5159 14.1477 24.6559 14.1199 24.7974 14.1199C24.9388 14.1199 25.0789 14.1477 25.2095 14.2018C25.3402 14.2558 25.4589 14.335 25.5589 14.4348C25.6589 14.5347 25.7383 14.6532 25.7924 14.7837C25.8465 14.9141 25.8744 15.0539 25.8744 15.1951C25.8744 15.7899 25.3926 16.2709 24.7979 16.2709Z" fill="white"/>
<path d="M19.993 22.9757C21.6508 22.9757 22.9947 21.6341 22.9947 19.979C22.9947 18.324 21.6508 16.9824 19.993 16.9824C18.3352 16.9824 16.9913 18.324 16.9913 19.979C16.9913 21.6341 18.3352 22.9757 19.993 22.9757Z" fill="white"/>
<defs>
<linearGradient id="paint0_linear_33_580" x1="20" y1="0" x2="20" y2="40" gradientUnits="userSpaceOnUse">
<stop stop-color="#FF005B"/>
<stop offset="1" stop-color="#D30067"/>
</linearGradient>
</defs>
</svg>
