<svg width="40" height="40" viewBox="0 0 40 40" fill="none" xmlns="http://www.w3.org/2000/svg">
<path d="M20 0C8.95422 0 0 8.95422 0 20C0 31.0458 8.95422 40 20 40C31.0458 40 40 31.0458 40 20C40 8.95422 31.0458 0 20 0Z" fill="#40B3E0"/>
<path d="M28.2282 12.4021L25.2104 26.6343C24.9825 27.6386 24.389 27.8886 23.5454 27.4157L18.9468 24.0271L16.7282 26.1614C16.4825 26.4071 16.2775 26.6121 15.804 26.6121L16.1347 21.9293L24.6568 14.2286C25.0275 13.8986 24.5761 13.715 24.0811 14.0457L13.5454 20.68L9.00967 19.26C8.02324 18.9521 8.00538 18.2736 9.21538 17.8L26.9561 10.965C27.7775 10.6571 28.4961 11.1478 28.2282 12.4028V12.4021Z" fill="white"/>
</svg>
